# xmcd CD database file
#
# Track frame offsets:
#	150
#	19986
#	39744
#	56780
#	73743
#	92959
#	111484
#	124386
#	143440
#	163124
#	179583
#	195849
#	211675
#	228910
#	244619
#	263760
#	283848
#	301289
#	314581
#	333504
#
# Disc length: 4669 seconds
#
# Revision: 0
# Processed by: cddbd v1.5.1PL2 Copyright (c) Steve Scherf et al.
# Submitted via: CDex 1.51
#
DISCID=2e123b14
DTITLE=Various Artist - Ultimate Salsa - CD4
DYEAR=2004
DGENRE=Salsa
TTITLE0=Ray Barretto - Mirame de frente
TTITLE1=Tito Puente - Niña y señora
TTITLE2=Larry Harlow and Fania All Stars - Congo bongo
TTITLE3=Ismael Rivera - Las Caras lindas
TTITLE4=Mongo Santamaria - Guajiro
TTITLE5=Willie Colon - Guaracha
TTITLE6=Oscar n'Co - Enamouré
TTITLE7=Fania All Stars - Quitate tu (Live)
TTITLE8=Sonora del Sol - Al Vaivén de mi carreta
TTITLE9=Menique - Campesino
TTITLE10=Justo Betancourt - Pa bravo yo
TTITLE11=Ray de la Paz - Pan con bacalao
TTITLE12=Tito Allen - El Ambajador
TTITLE13=Willie Colon - Che che cole
TTITLE14=Sonora Poncena - Guaguanco de esquina
TTITLE15=Ricardo Vilas - A Felicidad
TTITLE16=Sonora del Sol - Guantaque campesino
TTITLE17=Eduardo Vals - Veinte años
TTITLE18=Ray Barretto - Café con leche
TTITLE19=Fania All Stars con Hector Lavoie - Siento
EXTD=YEAR: 2004
EXTT0=
EXTT1=
EXTT2=
EXTT3=
EXTT4=
EXTT5=
EXTT6=
EXTT7=
EXTT8=
EXTT9=
EXTT10=
EXTT11=
EXTT12=
EXTT13=
EXTT14=
EXTT15=
EXTT16=
EXTT17=
EXTT18=
EXTT19=
PLAYORDER=
